<svg width="209" height="62" fill="none" xmlns="http://www.w3.org/2000/svg"><path d="M163.54 50.507h-1.181v-6.47h1.05l2.491 3.202 2.361-3.202h1.049v6.47h-1.18v-4.705l-2.23 3.006h-.065l-2.361-3.006v4.705h.066zm-41.903 0h-1.181v-5.293h-2.295l-.065 1.11a14.868 14.868 0 01-.328 2.222c-.131.588-.328 1.046-.59 1.307-.263.262-.459.523-.722.588-.262.131-.59.196-.983.196l-.066-1.11c.131 0 .197 0 .328-.066a1.37 1.37 0 00.393-.261c.132-.131.263-.327.394-.588.131-.262.197-.589.328-1.046.065-.457.131-.915.196-1.503l.132-2.026h4.524v6.47h-.065zm-20.914-6.47h2.033v6.47h-1.18V48.35h-1.246l-1.574 2.157H97.38l1.902-2.418c-.394-.066-.721-.327-.984-.654-.262-.326-.393-.718-.393-1.241 0-.654.262-1.177.721-1.569.394-.392 1.115-.588 2.098-.588zm-1.639 2.157c0 .326.131.588.328.784.262.196.525.327.852.327h1.312v-2.222h-1.049c-.459 0-.853.13-1.115.327a1.08 1.08 0 00-.328.784zM84.13 50.507v-6.47h2.362c1.836 0 2.82.588 2.82 1.7 0 .391-.131.718-.393.98-.263.26-.525.457-.918.522.983.196 1.508.72 1.508 1.503 0 1.242-.984 1.895-3.017 1.895h-2.098c-.131-.13-.197-.13-.262-.13zm2.427-5.62c-.262 0-.721 0-1.311.065v1.895h1.442c.394 0 .721-.065.984-.261.262-.196.393-.458.393-.719 0-.653-.524-.98-1.508-.98zm.131 2.679h-1.377v1.96c.721 0 1.115.066 1.311.066 1.115 0 1.64-.327 1.64-1.046 0-.588-.525-.98-1.574-.98zM54.952 45.67l-3.738 4.837h-1.18v-6.47h1.18v4.836l3.738-4.836h1.18v6.47h-1.18V45.67zm76.917-.522h-2.361v-1.176h5.902v1.176h-2.361v5.293h-1.18v-5.293zm-17.967 5.359h-1.115v-5.424h-3.541v5.358h-1.18v-6.47h5.836v6.536zm57.835-5.097l-.328-.915a4.136 4.136 0 012.164-.588c.852 0 1.508.196 1.901.653.394.457.59 1.11.59 2.026v3.986h-1.114v-.915c-.525.654-1.181.915-2.099.915-.59 0-1.049-.196-1.442-.523-.394-.392-.525-.85-.525-1.438 0-.653.197-1.11.656-1.502.459-.392 1.049-.523 1.77-.523.656 0 1.246.13 1.64.392 0-.719-.131-1.242-.328-1.569-.197-.326-.59-.457-1.18-.457-.459 0-1.115.13-1.705.458zm1.573 4.182c.656 0 1.181-.262 1.705-.85v-.85c-.393-.26-.918-.457-1.442-.457-.394 0-.722.066-.984.262a.93.93 0 00-.393.784c0 .327.131.588.327.719a.936.936 0 00.787.392zM91.607 45.41l-.327-.915a4.138 4.138 0 012.163-.588c.853 0 1.509.196 1.902.653.394.457.59 1.11.59 2.026v3.986H94.82v-.915c-.524.654-1.18.915-2.098.915-.59 0-1.049-.196-1.442-.523-.394-.392-.525-.85-.525-1.438 0-.653.197-1.11.656-1.502.459-.392 1.049-.523 1.77-.523.656 0 1.246.13 1.64.392 0-.719-.132-1.242-.328-1.569-.197-.326-.59-.457-1.18-.457-.525 0-1.115.13-1.706.458zm1.574 4.182c.656 0 1.18-.262 1.705-.85v-.85c-.393-.26-.918-.457-1.442-.457-.394 0-.722.066-.984.262a.93.93 0 00-.393.784c0 .327.13.588.327.719.131.261.46.392.787.392zm-16.654.13c-.656-.653-.984-1.437-.984-2.417 0-.98.328-1.765.984-2.418.656-.654 1.508-.98 2.492-.98.983 0 1.836.326 2.491.98.656.653.984 1.437.984 2.418 0 .98-.328 1.764-.984 2.417-.655.654-1.442.98-2.491.98-1.05-.065-1.837-.391-2.492-.98zm.262-2.483c0 .654.197 1.242.59 1.634.394.457.984.653 1.64.653.655 0 1.18-.196 1.639-.653.393-.457.656-.98.656-1.634 0-.653-.197-1.241-.656-1.633-.394-.458-.918-.654-1.574-.654s-1.18.196-1.574.654c-.524.457-.72.98-.72 1.633zm-7.675 6.143h-1.18v-9.345h1.18v.784c.262-.261.524-.457.983-.653.394-.196.853-.261 1.246-.261.918 0 1.64.326 2.164.914.524.589.852 1.373.852 2.353 0 .98-.328 1.83-.918 2.483-.59.654-1.442.98-2.426.98-.787 0-1.377-.13-1.836-.457v3.202h-.066zm1.901-8.43c-.787 0-1.377.327-1.901.915v3.202c.524.327 1.114.523 1.704.523.656 0 1.246-.196 1.64-.654.393-.457.59-.98.59-1.699 0-.653-.197-1.241-.59-1.633-.328-.458-.787-.654-1.443-.654zm84.524 8.43h-1.18v-9.345h1.18v.784c.263-.261.525-.457.984-.653.393-.196.852-.262 1.246-.262.918 0 1.639.327 2.164.915.524.588.852 1.372.852 2.353 0 .98-.328 1.83-.918 2.483-.59.653-1.442.98-2.426.98-.787 0-1.377-.13-1.836-.457v3.202h-.066zm1.836-8.43c-.787 0-1.377.327-1.901.915v3.202c.524.326 1.114.523 1.705.523.655 0 1.246-.197 1.639-.654s.59-.98.59-1.699c0-.653-.197-1.242-.59-1.634-.262-.457-.787-.653-1.443-.653zm-10.623 4.77c-.655-.653-.983-1.437-.983-2.418 0-.98.328-1.764.983-2.418.656-.653 1.509-.98 2.492-.98.984 0 1.836.327 2.492.98.656.654.983 1.438.983 2.418 0 .98-.327 1.765-.983 2.418-.656.654-1.443.98-2.492.98-1.049-.065-1.836-.392-2.492-.98zm.263-2.483c0 .654.196 1.242.59 1.634.393.457.983.653 1.639.653s1.18-.196 1.639-.653c.394-.458.656-.98.656-1.634 0-.653-.197-1.242-.656-1.634-.393-.457-.918-.653-1.573-.653-.656 0-1.181.196-1.574.653-.525.458-.721.98-.721 1.634zm-22.95-1.829l-.328-.916a4.139 4.139 0 012.164-.588c.853 0 1.508.196 1.902.654.393.457.59 1.11.59 2.026v3.986h-1.115v-.915c-.524.653-1.18.915-2.098.915-.59 0-1.049-.196-1.443-.523-.393-.392-.524-.85-.524-1.438 0-.653.196-1.11.656-1.503.459-.392 1.049-.522 1.77-.522.656 0 1.246.13 1.639.392 0-.72-.131-1.242-.328-1.569-.196-.326-.59-.457-1.18-.457-.524 0-1.115.13-1.705.457zm1.574 4.182c.656 0 1.18-.262 1.705-.85v-.85c-.394-.26-.918-.457-1.443-.457-.393 0-.721.065-.983.261a.93.93 0 00-.394.785c0 .326.131.588.328.718.131.262.394.393.787.393zm-78.163.915h-8.13V40.444h1.245v8.887h5.443v-8.887h1.18v8.887h1.377v3.006h-1.18v-1.83h.065zm93.377 2.875h-1.18v-2.745h-.131c-1.115 0-1.967-.326-2.558-.98-.655-.653-.918-1.438-.918-2.418 0-.915.328-1.699.984-2.418.656-.653 1.508-.98 2.557-.98h.197v-3.463h1.18v3.463h.197c1.049 0 1.902.327 2.557.98.656.654.984 1.438.984 2.418 0 .98-.328 1.83-.918 2.418-.59.654-1.443.915-2.557.915h-.197v2.81h-.197zm-3.606-6.143c0 .72.196 1.242.655 1.7.394.391.984.653 1.705.653h.131v-4.575h-.196c-.722 0-1.246.196-1.64.654-.459.392-.655.915-.655 1.568zm3.803-2.287h-.197v4.574h.131c.722 0 1.312-.196 1.705-.653.394-.392.59-.98.59-1.7 0-.653-.196-1.175-.59-1.633a2.478 2.478 0 00-1.639-.588zm-78.427 8.43h-1.18v-2.745h-.131c-1.115 0-1.967-.326-2.557-.98-.656-.653-.919-1.438-.919-2.418 0-.915.328-1.699.984-2.418.656-.653 1.508-.98 2.557-.98h.197v-3.463h1.18v3.463h.197c1.05 0 1.902.327 2.558.98.655.654.983 1.438.983 2.418 0 .98-.328 1.83-.918 2.418-.59.654-1.442.915-2.557.915h-.197v2.81h-.197zm-3.606-6.143c0 .72.197 1.242.656 1.7.393.391.983.653 1.704.653h.132v-4.575h-.197c-.721 0-1.246.196-1.64.654-.458.392-.655.915-.655 1.568zm3.803-2.287h-.197v4.574h.132c.72 0 1.311-.196 1.704-.653.394-.392.59-.98.59-1.7 0-.653-.196-1.175-.59-1.633a2.479 2.479 0 00-1.639-.588zM38.886 33.907V17.178h5.049l5.049 5.685 4.655-5.685h4.918v16.795h-5.639v-8.3l-4.065 4.64h-.132l-4.262-4.64v8.234h-5.574zm22.034-8.364c0-2.549.852-4.64 2.556-6.339 1.705-1.699 4-2.483 6.82-2.483 2.82 0 5.115.85 6.754 2.483 1.705 1.7 2.557 3.79 2.557 6.339 0 2.548-.852 4.64-2.557 6.338-1.705 1.7-3.934 2.484-6.754 2.484-2.82 0-5.115-.85-6.82-2.484-1.704-1.698-2.557-3.79-2.557-6.338zm9.31 3.594c1.968 0 3.345-1.372 3.345-3.594 0-2.091-1.443-3.594-3.345-3.594-1.901 0-3.344 1.437-3.344 3.594 0 2.09 1.377 3.594 3.344 3.594zm17.312 4.77h-5.574v-16.73h5.64v8.757l5.966-8.756h5.64v16.794h-5.64V25.15l-6.032 8.757zm1.573-24.963c0 1.438.525 2.156 1.574 2.156.918 0 1.443-.718 1.443-2.156h4.852c0 3.66-2.23 6.339-6.295 6.339-4.393 0-6.426-2.549-6.426-6.339h4.852zm80.395 24.964V26.85h-9.377v7.058h-3.016v-16.73h3.016v6.862h9.377v-6.86h3.016v16.794h-3.016v-.065zm-44.527 0h-3.016v-16.73h3.016V29.66l9.705-12.481h3.016v16.794h-3.016V21.426l-9.705 12.482zm83.279-2.418c-1.377 1.764-3.803 2.81-6.492 2.81-2.688 0-4.852-.784-6.557-2.353-1.639-1.633-2.492-3.724-2.492-6.338 0-2.484.853-4.575 2.426-6.209 1.64-1.698 3.673-2.548 6.099-2.548 2.951 0 5.18.719 6.623 2.222l-1.377 2.352c-1.246-1.176-2.886-1.764-4.853-1.764-1.574 0-2.885.588-4.065 1.699-1.115 1.11-1.705 2.549-1.705 4.248 0 1.764.59 3.267 1.705 4.313 1.18 1.11 2.623 1.633 4.327 1.633 1.968 0 3.541-.719 4.853-2.156l1.508 2.09zm-17.703.588c-1.639 1.438-3.738 2.222-6.295 2.222-2.754 0-4.918-.784-6.557-2.353-1.64-1.633-2.492-3.724-2.492-6.338 0-2.549.787-4.64 2.295-6.274 1.508-1.699 3.672-2.483 6.36-2.483 2.23 0 4.066.719 5.574 2.156 1.508 1.438 2.23 3.268 2.23 5.49 0 .784-.066 1.437-.197 2.025h-12.918c.262 3.137 2.557 5.032 5.836 5.032 2.23 0 3.934-.588 5.18-1.764l.984 2.287zm-12.197-8.038h10.23c-.131-2.81-1.967-4.444-4.853-4.444-3.016 0-5.049 1.83-5.377 4.444zm-35.279 9.606c-1.377-.457-2.361-.98-2.885-1.633l1.508-2.222c1.377 1.11 3.41 1.83 4.983 1.83 2.558 0 4.394-1.111 4.394-2.745 0-1.372-1.246-2.157-3.279-2.157h-2.885v-2.417h2.623c1.705 0 2.885-1.046 2.885-2.353 0-1.503-1.377-2.418-3.607-2.418-1.77 0-3.475.654-5.049 1.83l-1.18-2.287c1.377-1.373 3.934-2.222 6.623-2.222 4.065 0 6.295 1.699 6.295 4.509 0 1.96-.984 3.267-2.951 3.92v.066c2.23.262 3.541 1.895 3.541 3.921 0 3.071-2.885 5.032-7.147 5.032-1.181 0-2.492-.262-3.869-.654zM117.575 9.794a4.511 4.511 0 01-2.164 1.699c-.853.327-1.902.588-3.148.719a14.898 14.898 0 00-3.278.915c-2.558 1.176-3.935 3.855-4.263 8.103h.066c1.115-2.353 3.803-3.921 6.623-3.921 4.787 0 7.803 3.267 7.803 8.364 0 2.353-.853 4.444-2.426 6.078-1.64 1.699-3.672 2.483-6.23 2.483-2.754 0-4.918-.915-6.491-2.81-1.64-1.895-2.361-4.378-2.361-7.646 0-7.253 2.098-11.762 6.229-13.527.984-.457 2.099-.718 3.279-.914 2.361-.393 3.672-.654 4.656-1.96l1.705 2.417zm-6.951 21.695c1.639 0 2.951-.588 3.934-1.633 1.049-1.111 1.574-2.418 1.574-4.052 0-3.398-1.967-5.685-5.377-5.685-1.508 0-2.754.392-3.803 1.242s-1.705 1.83-1.967 3.006c0 4.313 2.295 7.122 5.639 7.122zM9.508 51.943l4.721 9.933h.066l4.786-9.933-4.787-4.77-4.786 4.77z" fill="#2A2A2A"/><path d="M14.295 4.827C13.245 5.35 0 12.342 0 23.517c0 9.54 7.803 24.048 7.803 24.048l6.492-6.47 6.492 6.47s7.803-14.442 7.803-24.048C28.524 12.342 15.278 5.35 14.295 4.827zm4.262 31.89l-4.262-4.248-4.262 4.248c-.197-.588-3.082-8.3-3.082-13.331 0-6.796 6.82-10.586 7.344-10.848.524.196 7.344 4.052 7.344 10.848 0 5.032-2.885 12.743-3.082 13.33z" fill="#FE5F5F"/><path d="M17.705 23.06c0 1.829-1.508 3.332-3.344 3.332-1.836 0-3.344-1.503-3.344-3.333 0-1.83 1.508-3.332 3.344-3.332 1.836 0 3.344 1.503 3.344 3.332zM28.56 0l-4.868 4.852 4.869 4.852 4.868-4.852L28.561 0z" fill="#2A2A2A"/></svg>